<svg xmlns="http://www.w3.org/2000/svg" width="20" height="22" viewBox="0 0 20 22"><g><g opacity="1"><g opacity="1"><path fill="#9a9fbf" d="M19.992 11.993c0-4.472-2.94-8.256-6.992-9.532v2.126A7.998 7.998 0 0 1 18 12a7.998 7.998 0 0 1-5 7.413v2.112c4.052-1.277 6.992-5.06 6.992-9.532zM7 2.454C2.939 3.725-.008 7.514-.008 11.993c0 4.477 2.947 8.266 7.008 9.538v-2.118A7.998 7.998 0 0 1 2 12a7.998 7.998 0 0 1 5-7.413z"/></g><g opacity="1"><path fill="#9a9fbf" d="M9 0h2v10H9z"/></g><g opacity="1"><path fill="#9a9fbf" d="M9 20h2v2H9z"/></g></g></g></svg>