<svg xmlns="http://www.w3.org/2000/svg" width="34" height="34" viewBox="0 0 34 34"><g><g><g><path fill="#fff" d="M31.173 25.38l-.016-.012a16.758 16.758 0 0 1-1.18 1.599l-1.754-2.632c.267-.372.52-.755.755-1.15.134-.222.255-.453.377-.684.247-.472.47-.957.665-1.458.611-1.568.98-3.257.98-5.043 0-3.15-1.052-6.046-2.808-8.385l1.464-2.928C32.346 7.694 34 11.647 34 16c0 3.468-1.044 6.69-2.827 9.38zM6.837 29.604A16.952 16.952 0 0 1 .06 17H.05c-.019-.333-.05-.663-.05-1 0-1.1.113-2.171.313-3.212l2.777 1.666c-.02.18-.018.365-.032.546h.004c-.024.333-.062.661-.062 1 0 4.48 2.113 8.46 5.387 11.022z"/></g><g><path fill="#fff" d="M24.5 28a1.5 1.5 0 1 1 0 3 1.5 1.5 0 0 1 0-3z"/></g><g><path fill="#fff" d="M18.5 30a1.5 1.5 0 1 1 0 3 1.5 1.5 0 0 1 0-3z"/></g><g><path fill="#fff" d="M7.5 2a1.5 1.5 0 1 1 0 3 1.5 1.5 0 0 1 0-3z"/></g><g><path fill="#fff" d="M3.5 7a1.5 1.5 0 1 1 0 3 1.5 1.5 0 0 1 0-3z"/></g><g><path fill="#fff" d="M12.624.006L28.312 0l-6.75 12.9H27L10 34l5-17H8z"/></g></g></g></svg>